<svg version="1.1" xmlns="http://www.w3.org/2000/svg" style="display: block;" viewBox="0 0 2048 2048" width="512" height="512">
<path transform="translate(0,0)" fill="rgb(0,0,0)" d="M 965.173 806.074 C 993.36 803.861 1022.22 806.04 1050.49 806.05 L 1325.38 806.052 C 1351.39 806.049 1380.55 799.946 1400.9 819.688 C 1419.93 838.156 1413 902.112 1413 930.996 C 1456.58 931.488 1555.64 925.274 1594.25 933.404 C 1713.49 958.518 1717.88 1055.09 1717.86 1149.94 L 1717.94 1380.1 C 1717.97 1403.9 1719.73 1429.58 1715.13 1453 C 1702.69 1516.39 1646.5 1573.36 1580.87 1578.6 C 1558.23 1580.42 1534.63 1579.03 1511.84 1579.03 L 1285.49 1579.07 C 1256.42 1579.16 1207.33 1586.76 1206.7 1540.53 C 1206.12 1498.46 1240 1498.65 1272.01 1498.76 L 1479.75 1498.88 C 1522.64 1498.87 1584.37 1509.09 1615.53 1476.01 C 1639.6 1450.47 1636.18 1421.47 1636.15 1388.9 L 1636.1 1169.91 C 1636.11 1142.42 1640.42 1088.18 1632.22 1062.59 C 1613.83 1005.2 1562.62 1012.12 1517.22 1012.76 C 1487.03 1013.18 1456.81 1012.97 1426.61 1012.97 C 1311.35 1012.99 1330.82 987.062 1331.01 886.936 L 1260.41 886.85 C 1244.38 886.672 1227.96 885.387 1212 886.936 L 1212 1067.39 C 1207.48 1118.58 1173.68 1163.43 1123.33 1177.13 C 1093.24 1185.32 1049.57 1181.93 1017.81 1181.9 L 902.59 1181.96 C 900.928 1206.01 902.55 1231.25 902.569 1255.46 L 902.505 1402.34 C 902.52 1481.07 940.405 1498.79 1013.22 1498.93 L 1063.55 1498.89 L 1063.5 1497.71 C 1062.92 1482.66 1063.47 1467.46 1063.48 1452.39 L 1063.96 1361.74 C 1064.25 1337 1058.17 1308.84 1077.09 1289.16 C 1098.17 1267.22 1144.76 1275.71 1172.5 1275.78 L 1274.32 1275.81 C 1263.09 1235.8 1269.34 1191.75 1298.74 1160.67 C 1370.64 1084.68 1497.21 1141.04 1498.18 1241.33 C 1498.68 1293.44 1463.65 1341.52 1412.41 1353.6 C 1388.2 1359.3 1343.12 1356.46 1316.72 1356.45 L 1145.97 1356.44 L 1145.99 1486.88 C 1146.01 1567.57 1159.08 1579.07 1066.53 1578.99 C 1030.84 1578.95 980.327 1582.47 946.953 1574.69 C 885.095 1560.28 831.971 1507.95 823.427 1444.02 C 819.024 1411.08 821.46 1375.47 821.479 1342.2 L 821.484 1024.14 C 821.487 995.815 819.462 965.635 823.84 937.638 C 835.057 865.897 894.035 814.83 965.173 806.074 z M 1388.47 1275.85 A 34.9779 34.9779 0 0 0 1415.85 1253.58 A 34.9779 34.9779 0 0 0 1409.89 1218.78 A 34.9779 34.9779 0 0 0 1376.64 1206.91 A 34.9779 34.9779 0 0 0 1348.63 1247.2 A 34.9779 34.9779 0 0 0 1388.47 1275.85 z"/>
<path transform="translate(0,0)" fill="rgb(0,0,0)" d="M 1161.48 216 C 1223.71 212.309 1331.7 206.612 1375.82 249.306 C 1413.95 286.204 1413.05 330.099 1413.03 379.243 L 1412.97 450.536 C 1412.95 549.506 1411.54 648.703 1413 747.65 C 1386.29 736.614 1359.39 738.562 1331.01 738.51 C 1332.92 710.158 1331.05 681.399 1331.02 652.998 L 1331.07 375.358 C 1331.08 294.952 1327.47 293.698 1239.65 293.798 L 749.559 293.848 L 749.655 497.622 C 749.711 533.693 744.135 565.95 717.473 592.395 C 676.972 632.568 635.416 625.521 583.476 625.787 L 413 625.943 C 412.963 627.448 412.926 628.95 412.92 630.455 L 412.953 1666.78 C 412.944 1751.63 415.86 1752.1 507.562 1752.08 L 965.173 1752.06 L 1248.75 1752.12 C 1335.13 1752.25 1326.37 1726.72 1326.01 1651.12 L 1408 1651.12 C 1408.02 1670.43 1408.29 1689.78 1408.05 1709.09 C 1407.01 1793.55 1339.96 1830.71 1264.65 1830.34 L 654.3 1830.23 C 588.938 1830.23 523.434 1831.21 458.089 1830.17 C 393.783 1829.16 340.259 1785.51 331.977 1720.95 C 329.077 1698.34 332.58 1645.96 332.578 1620.56 L 332.561 852.092 C 332.549 764.194 330.831 675.946 332.747 588.097 C 333.371 559.51 346.236 550.059 365.113 531.172 L 633.791 264.781 C 686.158 213.053 674.82 215.968 745.481 215.969 L 1055.54 216.006 C 1090.81 216.002 1126.23 215.146 1161.48 216 z M 471.006 545.001 C 506.193 546.232 541.832 545.027 577.069 545.053 C 627.007 545.089 667.897 561.656 668.606 499.644 C 668.734 488.388 668.97 348.435 668.525 347.723 C 656.071 356.448 646.546 367.692 635.815 378.36 L 572.745 440.85 C 559.21 454.235 471.726 537.402 468.61 544.086 C 470.549 545.093 469.701 544.985 471.006 545.001 z"/>
</svg>